<svg width="136" height="166" viewBox="0 0 136 166" fill="none" xmlns="http://www.w3.org/2000/svg">
<path d="M99.5566 14.4461C99.2963 12.5981 100.583 10.89 102.432 10.6309L120.683 8.07217C122.531 7.81307 124.24 9.10112 124.501 10.9491L135.528 89.2208C135.789 91.0688 134.502 92.777 132.653 93.0361L114.402 95.5947C112.554 95.8538 110.845 94.5658 110.584 92.7178L99.5566 14.4461Z" fill="#D0E3F5"/>
<path d="M71.7205 3.79577C71.6878 1.92981 73.174 0.390807 75.04 0.358317L92.2396 0.0588407C94.1056 0.0263509 95.6447 1.51267 95.6774 3.37863L97.2318 92.2113C97.2644 94.0772 95.7783 95.6162 93.9123 95.6487L76.7127 95.9482C74.8467 95.9807 73.3076 94.4944 73.2749 92.6284L71.7205 3.79577Z" fill="#D0E3F5"/>
<path d="M35.6335 13.386C35.6335 11.5198 37.1464 10.0069 39.0127 10.0069H58.058C59.9243 10.0069 61.4372 11.5198 61.4372 13.386V92.4266C61.4372 94.2929 59.9243 95.8058 58.058 95.8058H39.0127C37.1464 95.8058 35.6335 94.2929 35.6335 92.4266V13.386Z" fill="#FFFDFA"/>
<path d="M0 3.58043C0 1.71418 1.51289 0.201294 3.37913 0.201294H20.5814C22.4476 0.201294 23.9605 1.71418 23.9605 3.58043V92.4266C23.9605 94.2929 22.4476 95.8057 20.5814 95.8057H3.37914C1.51289 95.8057 0 94.2929 0 92.4266V3.58043Z" fill="#D0E3F5"/>
<path d="M42.2452 120.353H47.2012V145.301H58.8772V149.753H42.2452V120.353ZM61.9199 122.747C61.9199 121.963 62.1999 121.305 62.7599 120.773C63.3479 120.241 64.0199 119.975 64.7759 119.975C65.5879 119.975 66.2739 120.241 66.8339 120.773C67.3939 121.305 67.6739 121.963 67.6739 122.747C67.6739 123.503 67.3939 124.161 66.8339 124.721C66.2739 125.253 65.5879 125.519 64.7759 125.519C64.0199 125.519 63.3479 125.253 62.7599 124.721C62.1999 124.161 61.9199 123.503 61.9199 122.747ZM62.5499 130.433H67.0439V149.753H62.5499V130.433ZM73.2852 116.993H77.8632V149.753H73.2852V116.993ZM83.4531 122.747C83.4531 121.963 83.7331 121.305 84.2931 120.773C84.8811 120.241 85.5531 119.975 86.3091 119.975C87.1211 119.975 87.8071 120.241 88.3671 120.773C88.9271 121.305 89.2071 121.963 89.2071 122.747C89.2071 123.503 88.9271 124.161 88.3671 124.721C87.8071 125.253 87.1211 125.519 86.3091 125.519C85.5531 125.519 84.8811 125.253 84.2931 124.721C83.7331 124.161 83.4531 123.503 83.4531 122.747ZM84.0831 130.433H88.5771V149.753H84.0831V130.433Z" fill="#FFFDFA"/>
</svg>
