<svg width="23" height="17" viewBox="0 0 23 17" fill="none" xmlns="http://www.w3.org/2000/svg">
<path d="M16.8368 2.44915C16.7928 2.13583 17.0111 1.84614 17.3244 1.8021L20.4082 1.3687C20.7216 1.32466 21.0113 1.54296 21.0553 1.85628L22.9203 15.1262C22.9643 15.4396 22.746 15.7293 22.4327 15.7733L19.3488 16.2067C19.0355 16.2507 18.7458 16.0324 18.7018 15.7191L16.8368 2.44915Z" fill="#AECAF5"/>
<path d="M12.1291 0.643605C12.1236 0.327254 12.3756 0.0663244 12.6919 0.0608024L15.5979 0.0100794C15.9142 0.00455752 16.1751 0.256534 16.1807 0.572885L16.4435 15.6334C16.4491 15.9497 16.1971 16.2107 15.8807 16.2162L12.9748 16.2669C12.6585 16.2724 12.3975 16.0205 12.392 15.7041L12.1291 0.643605Z" fill="#AECAF5"/>
<path d="M6.02637 2.26942C6.02637 1.95302 6.28286 1.69653 6.59926 1.69653H9.81732C10.1337 1.69653 10.3902 1.95303 10.3902 2.26942V15.6698C10.3902 15.9862 10.1337 16.2427 9.81732 16.2427H6.59926C6.28286 16.2427 6.02637 15.9862 6.02637 15.6698V2.26942Z" fill="#AECAF5"/>
<path d="M0 0.607071C0 0.290672 0.256492 0.0341797 0.57289 0.0341797H3.47925C3.79564 0.0341797 4.05214 0.290672 4.05214 0.607071V15.6699C4.05214 15.9863 3.79564 16.2428 3.47925 16.2428H0.57289C0.256491 16.2428 0 15.9863 0 15.6699V0.607071Z" fill="#AECAF5"/>
</svg>
